<svg width="160" height="160" viewBox="0 0 160 160" fill="none" xmlns="http://www.w3.org/2000/svg">
<path d="M94.05 10.5C89.92 -3.5 70.08 -3.5 65.95 10.5L64.95 13.9C64.3329 15.9959 63.2545 17.9272 61.7939 19.5521C60.3333 21.1771 58.5275 22.4544 56.5089 23.2906C54.4904 24.1268 52.3103 24.5006 50.1285 24.3846C47.9466 24.2685 45.8185 23.6656 43.9 22.62L40.8 20.92C27.97 13.94 13.94 27.97 20.93 40.79L22.62 43.9C27.08 52.1 22.85 62.31 13.9 64.95L10.5 65.95C-3.5 70.08 -3.5 89.92 10.5 94.05L13.9 95.05C15.9959 95.6671 17.9272 96.7455 19.5521 98.2061C21.1771 99.6667 22.4544 101.472 23.2906 103.491C24.1268 105.51 24.5006 107.69 24.3846 109.872C24.2685 112.053 23.6656 114.182 22.62 116.1L20.92 119.2C13.94 132.03 27.97 146.06 40.79 139.07L43.9 137.38C45.8185 136.334 47.9466 135.731 50.1285 135.615C52.3103 135.499 54.4904 135.873 56.5089 136.709C58.5275 137.546 60.3333 138.823 61.7939 140.448C63.2545 142.073 64.3329 144.004 64.95 146.1L65.95 149.5C70.08 163.5 89.92 163.5 94.05 149.5L95.05 146.1C95.6671 144.004 96.7455 142.073 98.2061 140.448C99.6667 138.823 101.472 137.546 103.491 136.709C105.51 135.873 107.69 135.499 109.872 135.615C112.053 135.731 114.182 136.334 116.1 137.38L119.2 139.08C132.03 146.06 146.06 132.03 139.07 119.21L137.38 116.1C136.334 114.182 135.731 112.053 135.615 109.872C135.499 107.69 135.873 105.51 136.709 103.491C137.546 101.472 138.823 99.6667 140.448 98.2061C142.073 96.7455 144.004 95.6671 146.1 95.05L149.5 94.05C163.5 89.92 163.5 70.08 149.5 65.95L146.1 64.95C144.004 64.3329 142.073 63.2545 140.448 61.7939C138.823 60.3333 137.546 58.5275 136.709 56.5089C135.873 54.4904 135.499 52.3103 135.615 50.1285C135.731 47.9466 136.334 45.8185 137.38 43.9L139.08 40.8C146.06 27.97 132.03 13.94 119.21 20.93L116.1 22.62C114.182 23.6656 112.053 24.2685 109.872 24.3846C107.69 24.5006 105.51 24.1268 103.491 23.2906C101.472 22.4544 99.6667 21.1771 98.2061 19.5521C96.7455 17.9272 95.6671 15.9959 95.05 13.9L94.05 10.5ZM80 109.3C72.2292 109.3 64.7766 106.213 59.2818 100.718C53.787 95.2234 50.7 87.7708 50.7 80C50.7 72.2292 53.787 64.7766 59.2818 59.2818C64.7766 53.787 72.2292 50.7 80 50.7C87.7682 50.7 95.2182 53.7859 100.711 59.2788C106.204 64.7718 109.29 72.2218 109.29 79.99C109.29 87.7582 106.204 95.2082 100.711 100.701C95.2182 106.194 87.7682 109.28 80 109.28V109.3Z" fill="#699BF7"/>
</svg>
