<svg width="160" height="160" viewBox="0 0 160 160" fill="none" xmlns="http://www.w3.org/2000/svg">
<path d="M53.3333 71.7333H49.4667C44.19 71.5426 38.9305 72.4384 34.0145 74.3651C29.0984 76.2917 24.6308 79.2081 20.8889 82.9333L19.8222 84.1778V120.978H37.9555V100.089L40.4 97.3333L41.5111 96.0444C47.2974 90.1 54.5012 85.7257 62.4444 83.3333C58.4675 80.3073 55.331 76.314 53.3333 71.7333Z" fill="#699BF7"/>
<path d="M139.289 82.8C135.547 79.0748 131.079 76.1584 126.163 74.2317C121.247 72.3051 115.988 71.4093 110.711 71.6C109.093 71.6046 107.476 71.6936 105.867 71.8667C103.832 76.164 100.781 79.9013 96.9778 82.7556C105.458 85.1016 113.139 89.7106 119.2 96.0889L120.311 97.3333L122.711 100.089V121.022H140.222V84.0444L139.289 82.8Z" fill="#699BF7"/>
<path d="M49.3334 63.0667H50.7111C50.071 57.57 51.0355 52.0055 53.4882 47.0448C55.9409 42.0842 59.7769 37.9395 64.5334 35.1111C62.8092 32.4771 60.4305 30.336 57.6303 28.8975C54.83 27.459 51.7042 26.7725 48.5588 26.905C45.4135 27.0376 42.3565 27.9847 39.6872 29.6537C37.0179 31.3227 34.8278 33.6563 33.3314 36.426C31.8349 39.1957 31.0835 42.3066 31.1506 45.454C31.2176 48.6014 32.101 51.6774 33.7141 54.3809C35.3271 57.0843 37.6147 59.3225 40.3527 60.8763C43.0907 62.43 46.1852 63.246 49.3334 63.2444V63.0667Z" fill="#699BF7"/>
<path d="M108.578 59.7333C108.632 60.7548 108.632 61.7785 108.578 62.8C109.431 62.9352 110.292 63.0095 111.156 63.0222H112C115.134 62.8551 118.172 61.8792 120.817 60.1897C123.462 58.5001 125.625 56.1544 127.094 53.381C128.564 50.6075 129.29 47.5008 129.203 44.3632C129.115 41.2257 128.217 38.1643 126.595 35.4771C124.973 32.7899 122.683 30.5684 119.948 29.029C117.212 27.4896 114.125 26.6846 110.986 26.6925C107.848 26.7004 104.764 27.5209 102.037 29.0741C99.3095 30.6272 97.0306 32.8602 95.4222 35.5555C99.4448 38.1819 102.753 41.7658 105.049 45.9856C107.345 50.2055 108.557 54.9293 108.578 59.7333Z" fill="#699BF7"/>
<path d="M79.4222 79.6444C90.3943 79.6444 99.2889 70.7498 99.2889 59.7778C99.2889 48.8057 90.3943 39.9111 79.4222 39.9111C68.4502 39.9111 59.5555 48.8057 59.5555 59.7778C59.5555 70.7498 68.4502 79.6444 79.4222 79.6444Z" fill="#699BF7"/>
<path d="M80.4889 90.2222C74.6846 89.9879 68.893 90.9302 63.4624 92.9924C58.0318 95.0547 53.0745 98.1942 48.8889 102.222L47.7778 103.467V131.6C47.7951 132.516 47.9928 133.42 48.3596 134.26C48.7264 135.1 49.2551 135.86 49.9154 136.495C50.5758 137.131 51.3549 137.63 52.2083 137.965C53.0616 138.299 53.9725 138.462 54.8889 138.444H105.956C106.872 138.462 107.783 138.299 108.636 137.965C109.49 137.63 110.269 137.131 110.929 136.495C111.589 135.86 112.118 135.1 112.485 134.26C112.852 133.42 113.049 132.516 113.067 131.6V103.556L112 102.222C107.841 98.1819 102.901 95.0334 97.4829 92.97C92.0644 90.9065 86.2816 89.9715 80.4889 90.2222Z" fill="#699BF7"/>
</svg>
