<svg width="160" height="160" viewBox="0 0 160 160" fill="none" xmlns="http://www.w3.org/2000/svg">
<path d="M60 132.813C60 131.404 60.5268 130.052 61.4645 129.056C62.4021 128.06 63.6739 127.5 65 127.5H95C96.3261 127.5 97.5979 128.06 98.5355 129.056C99.4732 130.052 100 131.404 100 132.813C100 134.221 99.4732 135.573 98.5355 136.569C97.5979 137.565 96.3261 138.125 95 138.125H65C63.6739 138.125 62.4021 137.565 61.4645 136.569C60.5268 135.573 60 134.221 60 132.813ZM30 85.6588C30 71.825 42.35 61.2531 55.3 62.5388C71.731 64.1681 88.269 64.1681 104.7 62.5388C117.65 61.2531 130 71.825 130 85.6588V97.9519C130.041 100.303 129.294 102.592 127.893 104.412C126.491 106.232 124.527 107.463 122.35 107.886C113.9 109.448 98.95 111.563 80 111.563C61.05 111.563 46.1 109.438 37.65 107.886C35.4732 107.463 33.5087 106.232 32.1074 104.412C30.7061 102.592 29.9592 100.303 30 97.9519V85.6588ZM75.42 76.8719C75.0303 76.8014 74.6304 76.8302 74.2532 76.9558C73.876 77.0814 73.5322 77.3002 73.25 77.5944L64.05 87.1569C57.7924 86.7606 51.5513 86.112 45.34 85.2125C44.6963 85.1446 44.053 85.3443 43.545 85.7698C43.0371 86.1953 42.7041 86.8134 42.6161 87.4942C42.528 88.1751 42.6918 88.8657 43.0729 89.421C43.4541 89.9762 44.0229 90.3529 44.66 90.4719C50.16 91.2794 56.98 92.055 64.86 92.5225C65.2071 92.5433 65.5544 92.4869 65.8799 92.357C66.2053 92.2272 66.5016 92.0266 66.75 91.7681L74.29 83.9481L82.76 102.117C82.9384 102.498 83.2004 102.828 83.524 103.079C83.8476 103.33 84.2232 103.495 84.6192 103.56C85.0152 103.624 85.4201 103.587 85.7996 103.45C86.1791 103.314 86.5222 103.082 86.8 102.776L96.12 92.4694C102.548 92.0638 108.96 91.3975 115.34 90.4719C115.977 90.3529 116.546 89.9762 116.927 89.421C117.308 88.8657 117.472 88.1751 117.384 87.4942C117.296 86.8134 116.963 86.1953 116.455 85.7698C115.947 85.3443 115.304 85.1446 114.66 85.2125C109.28 85.9988 102.59 86.7531 94.86 87.2206C94.2306 87.2578 93.6377 87.5462 93.2 88.0281L85.66 96.3688L77.24 78.3063C77.0644 77.9318 76.808 77.6066 76.4917 77.3574C76.1755 77.1081 75.8082 76.9418 75.42 76.8719V76.8719Z" fill="#EA6C6C"/>
<path d="M85 19.8263C86.9064 18.6569 88.3964 16.8517 89.2388 14.6908C90.0812 12.5299 90.229 10.1341 89.6593 7.87487C89.0895 5.61564 87.8341 3.61929 86.0876 2.19544C84.3412 0.771594 82.2013 -0.000179291 80 -0.000179291C77.7987 -0.000179291 75.6588 0.771594 73.9124 2.19544C72.1659 3.61929 70.9105 5.61564 70.3407 7.87487C69.771 10.1341 69.9188 12.5299 70.7612 14.6908C71.6036 16.8517 73.0936 18.6569 75 19.8263V31.8751H55C43.0653 31.8751 31.6193 36.9125 23.1802 45.8791C14.7411 54.8456 10 67.0069 10 79.6876V85.0001C7.34784 85.0001 4.8043 86.1195 2.92893 88.1121C1.05357 90.1047 0 92.8072 0 95.6251L0 116.875C0 119.693 1.05357 122.396 2.92893 124.388C4.8043 126.381 7.34784 127.5 10 127.5V138.125C10 143.761 12.1071 149.166 15.8579 153.151C19.6086 157.136 24.6957 159.375 30 159.375H130C135.304 159.375 140.391 157.136 144.142 153.151C147.893 149.166 150 143.761 150 138.125V127.5C152.652 127.5 155.196 126.381 157.071 124.388C158.946 122.396 160 119.693 160 116.875V95.6251C160 92.8072 158.946 90.1047 157.071 88.1121C155.196 86.1195 152.652 85.0001 150 85.0001V79.6876C150 67.0069 145.259 54.8456 136.82 45.8791C128.381 36.9125 116.935 31.8751 105 31.8751H85V19.8263ZM140 79.6876V138.125C140 140.943 138.946 143.646 137.071 145.638C135.196 147.631 132.652 148.75 130 148.75H30C27.3478 148.75 24.8043 147.631 22.9289 145.638C21.0536 143.646 20 140.943 20 138.125V79.6876C20 69.8249 23.6875 60.3661 30.2513 53.3921C36.815 46.4181 45.7174 42.5001 55 42.5001H105C114.283 42.5001 123.185 46.4181 129.749 53.3921C136.313 60.3661 140 69.8249 140 79.6876V79.6876Z" fill="#EA6C6C"/>
</svg>
