<svg width="160" height="160" viewBox="0 0 160 160" fill="none" xmlns="http://www.w3.org/2000/svg">
<path fill-rule="evenodd" clip-rule="evenodd" d="M20.1867 133.337C19.98 137.013 22.9867 140.003 26.6667 140.003H73.3333C77.0167 140.003 79.9633 137.007 80.37 133.347C81.8809 119.816 87.948 107.202 97.5749 97.5749C107.202 87.948 119.816 81.8809 133.347 80.37C137.007 79.9667 140 77.0167 140 73.3367V26.6667C140 22.9833 137.013 19.9767 133.337 20.1833C103.861 21.823 76.0235 34.2704 55.1486 55.1453C34.2738 76.0202 21.8263 103.857 20.1867 133.333V133.337ZM123.377 52.1267C125.816 51.5867 128.277 51.1486 130.753 50.8133L130.527 49.16L130.08 45.86L129.857 44.2067C127.197 44.5665 124.554 45.0369 121.933 45.6167L122.293 47.2433L123.017 50.5L123.377 52.1267ZM95.7133 63.3167C99.9737 60.6994 104.445 58.4416 109.08 56.5667L108.453 55.0233L107.203 51.9333L106.577 50.3867C101.599 52.4004 96.7981 54.8255 92.2233 57.6367L93.0967 59.0567L94.84 61.8967L95.7133 63.3167ZM78.22 77.3467C79.9589 75.5532 81.7716 73.8329 83.6533 72.19L82.5567 70.9333L80.3667 68.4233L79.27 67.1667C75.225 70.6971 71.481 74.5583 68.0767 78.71L69.3667 79.7667L71.9433 81.88L73.2333 82.9367C74.8173 81.005 76.4809 79.14 78.22 77.3467ZM58.4 108.83C60.1306 104.14 62.2491 99.6018 64.7333 95.2633L63.29 94.4367L60.3967 92.78L58.95 91.9533C56.2817 96.6116 54.006 101.484 52.1467 106.52L53.71 107.1L56.8367 108.253L58.4033 108.83H58.4ZM53.3167 130.673C53.5767 128.18 53.94 125.707 54.4 123.26L52.7667 122.95L49.49 122.33L47.85 122.02C47.3533 124.647 46.9633 127.303 46.6833 129.98L48.3433 130.153L51.6567 130.5L53.3167 130.673Z" fill="#699BF7"/>
</svg>
