<svg width="160" height="160" viewBox="0 0 160 160" fill="none" xmlns="http://www.w3.org/2000/svg">
<path d="M102.766 48.9969C100.836 48.9979 98.9665 49.668 97.4756 50.8929C95.9846 52.1178 94.9645 53.8218 94.589 55.7145C94.2135 57.6072 94.5059 59.5715 95.4163 61.2728C96.3268 62.9741 97.7989 64.3071 99.582 65.0447C101.365 65.7823 103.349 65.8789 105.195 65.3179C107.041 64.7569 108.636 63.5732 109.707 61.9683C110.779 60.3635 111.26 58.4368 111.07 56.5166C110.88 54.5964 110.031 52.8014 108.666 51.4375C107.892 50.6619 106.972 50.047 105.959 49.6281C104.947 49.2093 103.861 48.9947 102.766 48.9969V48.9969Z" fill="#699BF7"/>
<path d="M149.2 15.6437C149.199 15.6344 149.199 15.6249 149.2 15.6156C148.936 14.4572 148.353 13.3957 147.518 12.5509C146.682 11.7061 145.627 11.1115 144.472 10.8344C135.159 8.56249 120.509 10.9844 104.275 17.4844C87.9125 24.0469 72.5813 33.7344 62.2188 44.1156C58.8973 47.4194 55.8117 50.952 52.9844 54.6875C46.0063 54.375 39.8594 55.3687 34.6813 57.6281C16.6375 65.5687 11.4844 85.8906 10.1125 94.2344C9.91401 95.4199 9.99174 96.6353 10.3397 97.7859C10.6876 98.9364 11.2963 99.9912 12.1185 100.868C12.9407 101.745 13.9541 102.42 15.0799 102.842C16.2057 103.263 17.4135 103.419 18.6094 103.297H18.65L38.75 101.103C38.775 101.359 38.8031 101.594 38.825 101.809C39.0832 104.259 40.1755 106.545 41.9188 108.284L51.7282 118.1C53.4652 119.846 55.7508 120.939 58.2 121.197L58.8719 121.269L56.6844 141.344V141.384C56.5726 142.466 56.6877 143.558 57.0222 144.592C57.3567 145.627 57.9034 146.58 58.6272 147.39C59.351 148.201 60.2361 148.852 61.2258 149.302C62.2155 149.751 63.2881 149.989 64.375 150C64.8095 150 65.2433 149.965 65.6719 149.894C74.0625 148.544 94.375 143.453 102.294 125.312C104.534 120.169 105.525 114.047 105.247 107.081C108.999 104.26 112.545 101.174 115.856 97.8469C126.303 87.4531 136.022 72.2469 142.516 56.1219C148.981 40.0719 151.416 25.3125 149.2 15.6437V15.6437ZM115.744 70.2937C113.176 72.8641 109.904 74.6152 106.341 75.3254C102.777 76.0356 99.0838 75.673 95.7268 74.2835C92.3698 72.894 89.5003 70.5401 87.4814 67.5194C85.4625 64.4988 84.3849 60.9472 84.3849 57.3141C84.3849 53.6809 85.4625 50.1293 87.4814 47.1087C89.5003 44.088 92.3698 41.7341 95.7268 40.3446C99.0838 38.9551 102.777 38.5925 106.341 39.3027C109.904 40.0129 113.176 41.764 115.744 44.3344C117.465 46.0296 118.832 48.0501 119.764 50.2784C120.697 52.5067 121.178 54.8983 121.178 57.3141C121.178 59.7298 120.697 62.1214 119.764 64.3497C118.832 66.578 117.465 68.5985 115.744 70.2937V70.2937Z" fill="#699BF7"/>
<path d="M50.6032 120.762C49.3939 120.612 48.1716 120.909 47.1657 121.597C45.1688 122.962 43.1626 124.313 41.1376 125.628C37.0407 128.291 32.1407 123.616 34.5751 119.378L38.3719 112.816C38.9148 112.022 39.217 111.088 39.2425 110.126C39.2679 109.165 39.0155 108.216 38.5154 107.395C38.0153 106.573 37.2889 105.913 36.4231 105.494C35.5574 105.075 34.5891 104.914 33.6344 105.031C29.4204 105.564 25.5033 107.484 22.5001 110.487C21.3563 111.634 17.8782 115.116 16.0063 128.381C15.4735 132.192 15.1376 136.027 15.0001 139.872C14.9829 140.539 15.0996 141.203 15.3432 141.825C15.5868 142.446 15.9524 143.013 16.4184 143.491C16.8844 143.968 17.4414 144.348 18.0566 144.608C18.6717 144.867 19.3325 145 20.0001 145H20.1251C23.973 144.864 27.8114 144.53 31.6251 144C44.8969 142.125 48.3782 138.644 49.5219 137.5C52.5397 134.495 54.4546 130.56 54.9563 126.331C55.117 125.016 54.7487 123.69 53.9324 122.646C53.1161 121.602 51.9187 120.924 50.6032 120.762Z" fill="#699BF7"/>
</svg>
