<svg width="81" height="80" viewBox="0 0 81 80" fill="none" xmlns="http://www.w3.org/2000/svg">
<path d="M52.0251 24.4984C51.0482 24.499 50.1018 24.834 49.347 25.4464C48.5922 26.0589 48.0758 26.9109 47.8857 27.8572C47.6956 28.8036 47.8436 29.7858 48.3045 30.6364C48.7654 31.4871 49.5107 32.1536 50.4134 32.5223C51.3161 32.8911 52.3203 32.9394 53.2549 32.6589C54.1896 32.3785 54.9969 31.7866 55.5392 30.9842C56.0816 30.1817 56.3255 29.2184 56.2294 28.2583C56.1332 27.2982 55.703 26.4007 55.012 25.7187C54.6201 25.3309 54.1545 25.0235 53.6419 24.814C53.1293 24.6046 52.5798 24.4974 52.0251 24.4984Z" fill="#699BF7"/>
<path d="M75.5325 7.82189C75.5318 7.81723 75.5318 7.81248 75.5325 7.80783C75.3987 7.22863 75.1037 6.69789 74.6808 6.27547C74.2578 5.85306 73.7238 5.55579 73.1389 5.4172C68.4244 4.28126 61.0079 5.4922 52.7892 8.7422C44.5057 12.0234 36.7443 16.8672 31.4982 22.0578C29.8168 23.7097 28.2546 25.476 26.8233 27.3438C23.2907 27.1875 20.1788 27.6844 17.5574 28.8141C8.42273 32.7844 5.81396 42.9453 5.11945 47.1172C5.01896 47.71 5.05831 48.3176 5.23444 48.8929C5.41058 49.4682 5.71875 49.9956 6.13497 50.4341C6.55119 50.8725 7.06424 51.2102 7.63418 51.4208C8.20413 51.6315 8.81559 51.7093 9.421 51.6484H9.44156L19.6172 50.5516C19.6298 50.6797 19.6441 50.7969 19.6552 50.9047C19.7858 52.1293 20.3388 53.2724 21.2214 54.1422L26.1874 59.05C27.0667 59.9229 28.2238 60.4697 29.4638 60.5984L29.8039 60.6344L28.6965 70.6719V70.6922C28.6399 71.2328 28.6981 71.7791 28.8675 72.2962C29.0368 72.8133 29.3136 73.2898 29.68 73.6952C30.0464 74.1007 30.4945 74.4261 30.9956 74.6508C31.4966 74.8755 32.0396 74.9944 32.5898 75C32.8098 75.0002 33.0294 74.9824 33.2464 74.9469C37.4941 74.2719 47.7773 71.7266 51.7862 62.6563C52.9205 60.0844 53.422 57.0234 53.2812 53.5406C55.1808 52.1301 56.9757 50.5871 58.6522 48.9234C63.941 43.7266 68.8611 36.1234 72.1485 28.0609C75.4218 20.0359 76.6542 12.6563 75.5325 7.82189ZM58.5953 35.1469C57.2954 36.4321 55.6387 37.3076 53.8349 37.6627C52.0311 38.0178 50.1611 37.8365 48.4617 37.1418C46.7622 36.447 45.3095 35.27 44.2875 33.7597C43.2654 32.2494 42.7199 30.4736 42.7199 28.657C42.7199 26.8404 43.2654 25.0647 44.2875 23.5543C45.3095 22.044 46.7622 20.8671 48.4617 20.1723C50.1611 19.4776 52.0311 19.2963 53.8349 19.6514C55.6387 20.0065 57.2954 20.882 58.5953 22.1672C59.4666 23.0148 60.1585 24.0251 60.6307 25.1392C61.103 26.2534 61.3462 27.4492 61.3462 28.657C61.3462 29.8649 61.103 31.0607 60.6307 32.1749C60.1585 33.289 59.4666 34.2993 58.5953 35.1469Z" fill="#699BF7"/>
<path d="M25.6178 60.3813C25.0057 60.3063 24.3868 60.4546 23.8776 60.7984C22.8667 61.4813 21.851 62.1563 20.8259 62.8141C18.7518 64.1453 16.2712 61.8078 17.5036 59.6891L19.4258 56.4078C19.7006 56.0108 19.8536 55.5439 19.8665 55.0631C19.8794 54.5823 19.7516 54.1081 19.4984 53.6973C19.2452 53.2864 18.8775 52.9564 18.4392 52.7469C18.0009 52.5373 17.5107 52.457 17.0274 52.5156C14.894 52.7821 12.911 53.7419 11.3906 55.2438C10.8116 55.8172 9.0508 57.5578 8.10316 64.1906C7.83343 66.0958 7.6634 68.0135 7.59375 69.9359C7.58509 70.2696 7.64416 70.6016 7.76749 70.9123C7.89081 71.2231 8.07589 71.5063 8.31181 71.7453C8.54772 71.9842 8.8297 72.1742 9.14111 72.3038C9.45252 72.4334 9.78706 72.5001 10.125 72.5H10.1883C12.1363 72.4319 14.0795 72.265 16.0102 72C22.729 71.0625 24.4914 69.3219 25.0705 68.75C26.5982 67.2478 27.5676 65.28 27.8216 63.1656C27.9029 62.5078 27.7165 61.845 27.3033 61.3229C26.89 60.8008 26.2838 60.4621 25.6178 60.3813Z" fill="#699BF7"/>
</svg>
