<svg width="160" height="160" viewBox="0 0 160 160" fill="none" xmlns="http://www.w3.org/2000/svg">
<path d="M20 13.3333H40C41.8667 13.3333 43.5333 14.0667 44.7333 15.2667L58.6 29.2L63.9333 23.9333C66.6667 21.3333 70 20 73.3333 20H113.333C116.667 20 120 21.3333 122.733 23.9333L129.4 30.6C132 33.3333 133.333 36.6667 133.333 40V126.667C133.333 130.203 131.929 133.594 129.428 136.095C126.928 138.595 123.536 140 120 140H53.3333C49.7971 140 46.4057 138.595 43.9052 136.095C41.4048 133.594 40 130.203 40 126.667V53.3333C40 50 41.3333 46.6667 43.9333 43.9333L49.2 38.6L37.2667 26.6667H20V13.3333ZM73.3333 33.3333V46.6667H113.333V33.3333H73.3333ZM76.0667 73.3333L62.7333 60H53.3333V69.4L66.6667 82.7333V103.933L53.3333 117.267V126.667H62.7333L76.0667 113.333H97.2667L110.6 126.667H120V117.267L106.667 103.933V82.7333L120 69.4V60H110.6L97.2667 73.3333H76.0667ZM80 86.6667H93.3333V100H80V86.6667Z" fill="#699BF7"/>
</svg>
