<svg width="160" height="160" viewBox="0 0 160 160" fill="none" xmlns="http://www.w3.org/2000/svg">
<path d="M80 13.3333C43.24 13.3333 13.3333 43.24 13.3333 80C13.3333 116.76 43.24 146.667 80 146.667C116.76 146.667 146.667 116.76 146.667 80C146.667 43.24 116.76 13.3333 80 13.3333ZM80 133.333C50.5933 133.333 26.6667 109.407 26.6667 80C26.6667 50.5933 50.5933 26.6667 80 26.6667C109.407 26.6667 133.333 50.5933 133.333 80C133.333 109.407 109.407 133.333 80 133.333Z" fill="#699BF7"/>
<path d="M86.6667 46.6667H73.3333V82.76L95.2867 104.713L104.713 95.2867L86.6667 77.24V46.6667Z" fill="#699BF7"/>
</svg>
