<svg width="160" height="160" viewBox="0 0 160 160" fill="none" xmlns="http://www.w3.org/2000/svg">
<path d="M53.3333 113.333H66.6667V106.667H73.3333C77 106.667 80 103.667 80 100V80C80 76.3333 77 73.3333 73.3333 73.3333H53.3333V66.6667H80V53.3333H66.6667V46.6667H53.3333V53.3333H46.6667C43 53.3333 40 56.3333 40 60V80C40 83.6667 43 86.6666 46.6667 86.6666H66.6667V93.3333H40V106.667H53.3333V113.333ZM133.333 26.6667H26.6667C19.2667 26.6667 13.4 32.6 13.4 40L13.3333 120C13.3333 127.4 19.2667 133.333 26.6667 133.333H133.333C140.733 133.333 146.667 127.4 146.667 120V40C146.667 32.6 140.733 26.6667 133.333 26.6667ZM133.333 120H26.6667V40H133.333V120ZM93.3333 66.6667L106.667 53.3333L120 66.6667H93.3333ZM120 95L106.667 108.333L93.3333 95" fill="#699BF7"/>
</svg>
