<svg width="160" height="160" viewBox="0 0 160 160" fill="none" xmlns="http://www.w3.org/2000/svg">
<path d="M152.906 38.0256C150.704 36.2912 144.8 34.8992 140.381 33.8624L134.4 33.0624V18.6048L137.462 18.5568C140.333 20.0128 144.467 22.4 144.682 25.6H156.214C156 19.2 151.139 15.1616 146.813 11.9552C143.942 9.8272 140.8 8.6912 134.4 8.0032V0H128V7.7568C121.6 8.3712 119.533 9.9648 116.643 12.5664C112.864 15.968 111.181 20.2368 111.181 25.376C111.181 31.008 112.79 35.1456 116.659 37.7952C118.822 39.296 121.6 40.6912 128 41.984V57.648C124.8 57.0816 124.794 57.2256 123.664 55.8848C122.576 54.5856 122.278 51.2 121.907 51.2H110.464C110.464 57.6 112.195 60.6656 116.528 64.08C119.651 66.5408 121.6 66.976 128 67.6224V73.6H134.4V67.7248C140.8 67.1072 146.237 65.4784 149.363 62.8096C153.421 59.344 156.739 54.9888 156.739 49.7472C156.736 44.6336 156.326 40.7296 152.906 38.0256ZM124.858 29.1104C122.995 28.096 122.278 26.56 122.278 24.5088C122.278 22.2752 122.896 20.528 124.784 19.28C125.779 18.624 124.8 18.1472 128 17.8304V30.4384C124.8 29.952 125.562 29.5104 124.858 29.1104ZM138.755 57.3344C138.218 57.52 134.4 57.6672 134.4 57.7984V44.464C140.8 45.0144 140.307 45.6064 141.37 46.2496C143.037 47.2864 143.875 48.7648 143.875 50.656C143.875 53.9072 142.163 56.1376 138.755 57.3344ZM123.264 96H121.494L101.834 60.4C100.986 58.8608 98.848 57.6 97.088 57.6H37.4368C35.6768 57.6 33.5392 58.8608 32.6912 60.4L13.0304 96H11.264C7.7408 96 3.2 98.88 3.2 102.4V134.4C3.2 137.92 7.7408 140.8 11.264 140.8H16V150.4C16 155.68 21.984 160 27.264 160H30.464C35.744 160 38.4 155.68 38.4 150.4V140.8H92.8V150.4C92.8 155.68 98.7808 160 104.064 160H107.264C112.544 160 115.2 155.68 115.2 150.4V140.8H123.264C126.784 140.8 128 137.92 128 134.4V102.4C128 98.88 126.781 96 123.264 96ZM22.464 121.6C20.3423 121.6 18.3074 120.757 16.8071 119.257C15.3069 117.757 14.464 115.722 14.464 113.6C14.464 111.478 15.3069 109.443 16.8071 107.943C18.3074 106.443 20.3423 105.6 22.464 105.6C24.5857 105.6 26.6206 106.443 28.1209 107.943C29.6211 109.443 30.464 111.478 30.464 113.6C30.464 115.722 29.6211 117.757 28.1209 119.257C26.6206 120.757 24.5857 121.6 22.464 121.6ZM28.864 96L41.8336 70.064C42.6176 68.4864 44.704 67.2 46.464 67.2H88.064C89.824 67.2 91.9072 68.4864 92.6944 70.064L105.664 96H28.864ZM112.064 121.6C109.942 121.6 107.907 120.757 106.407 119.257C104.907 117.757 104.064 115.722 104.064 113.6C104.064 111.478 104.907 109.443 106.407 107.943C107.907 106.443 109.942 105.6 112.064 105.6C114.186 105.6 116.221 106.443 117.721 107.943C119.221 109.443 120.064 111.478 120.064 113.6C120.064 115.722 119.221 117.757 117.721 119.257C116.221 120.757 114.186 121.6 112.064 121.6Z" fill="#699BF7"/>
</svg>
